<?xml version="1.0" encoding="iso-8859-1"?>
<!-- Uploaded to: SVG Repo, www.svgrepo.com, Generator: SVG Repo Mixer Tools -->
<svg fill="#000000" height="800px" width="800px" version="1.1" id="Layer_1" xmlns="http://www.w3.org/2000/svg" xmlns:xlink="http://www.w3.org/1999/xlink" 
	 viewBox="0 0 512 512" xml:space="preserve">
<g>
	<g>
		<polygon points="80.683,431.315 80.683,431.316 80.684,431.316 		"/>
	</g>
</g>
<g>
	<g>
		<path d="M462.547,221.286c-37.549-32.548-72.909-46.297-99.222-72.61c-26.313-26.313-40.064-61.674-72.611-99.222
			c-54.125-62.442-149.318-66.317-208.266-8.406c-0.787,0.774-1.57,1.552-2.351,2.336C-26.93,151.047-26.662,323.969,80.684,431.316
			s280.269,107.615,387.932,0.587c0.785-0.78,1.564-1.564,2.336-2.351C528.863,370.604,524.989,275.411,462.547,221.286z
			 M113.305,258.251c-21.492-2.422-36.951-21.807-34.529-43.299s21.807-36.951,43.298-34.529
			c21.492,2.422,36.951,21.807,34.529,43.299C154.183,245.213,134.797,260.673,113.305,258.251z M190.735,376.644
			c-15.293,15.293-40.087,15.293-55.381,0s-15.293-40.087,0-55.381c15.293-15.293,40.087-15.293,55.381,0
			S206.028,361.351,190.735,376.644z M211.585,136.22c-18.313,11.507-42.486,5.989-53.993-12.324
			c-11.507-18.313-5.989-42.486,12.324-53.993c18.313-11.507,42.486-5.989,53.993,12.324S229.898,124.713,211.585,136.22z
			 M297.046,433.222c-21.492,2.422-40.877-13.038-43.299-34.529c-2.422-21.492,13.038-40.877,34.529-43.299
			c21.492-2.422,40.877,13.038,43.298,34.529C333.997,411.416,318.538,430.802,297.046,433.222z M442.095,342.083
			c-11.507,18.313-35.68,23.83-53.993,12.324c-18.313-11.507-23.83-35.68-12.324-53.993c11.507-18.313,35.68-23.83,53.993-12.324
			C448.084,299.597,453.602,323.77,442.095,342.083z"/>
	</g>
</g>
</svg>